# xmcd
#
# Track frame offsets:
#	150
#	21384
#	36005
#	48214
#	71545
#	94383
#	114123
#	128544
#	145969
#	160904
#	178592
#	199884
#	220114
#
# Disc length: 3136 seconds
#
# Revision: 1
# Processed by: cddbd v1.5.1PL0 Copyright (c) Steve Scherf et al.
# Submitted via: audiograbber 1.83.01
#
DISCID=b20c3e0d
DTITLE=Ron Campbell - Live Plus One
DYEAR=2004
DGENRE=Blues
TTITLE0=Intro/Green River Blues
TTITLE1=Your One Good Man Is Gone
TTITLE2=Delivery Man
TTITLE3=Summertime
TTITLE4=Travelling Riverside Blues
TTITLE5=So Far Away, So Long Ago
TTITLE6=So Many Blues
TTITLE7=Blinded By Need
TTITLE8=A Bottle, My Baby, And The Blues
TTITLE9=Tax Man Blues
TTITLE10=Monday With A Vengeance
TTITLE11=(Encore) Wilderness
TTITLE12=This Is Not Spam
EXTD=
EXTT0=
EXTT1=
EXTT2=
EXTT3=
EXTT4=
EXTT5=
EXTT6=
EXTT7=
EXTT8=
EXTT9=
EXTT10=
EXTT11=
EXTT12=
PLAYORDER=
